<?xml version="1.0" encoding="UTF-8" standalone="no"?>
<!-- Created with Inkscape (http://www.inkscape.org/) -->

<svg
   xmlns:dc="http://purl.org/dc/elements/1.1/"
   xmlns:cc="http://creativecommons.org/ns#"
   xmlns:rdf="http://www.w3.org/1999/02/22-rdf-syntax-ns#"
   xmlns:svg="http://www.w3.org/2000/svg"
   xmlns="http://www.w3.org/2000/svg"
   xmlns:sodipodi="http://sodipodi.sourceforge.net/DTD/sodipodi-0.dtd"
   xmlns:inkscape="http://www.inkscape.org/namespaces/inkscape"
   width="120mm"
   height="297mm"
   viewBox="0 0 425.19686 1052.3622"
   id="svg2"
   version="1.1"
   inkscape:version="0.91 r13725"
   sodipodi:docname="fond-droite.svg">
  <defs
     id="defs4">
    <pattern
       y="0"
       x="0"
       height="6"
       width="6"
       patternUnits="userSpaceOnUse"
       id="EMFhbasepattern" />
    <pattern
       y="0"
       x="0"
       height="6"
       width="6"
       patternUnits="userSpaceOnUse"
       id="EMFhbasepattern-0" />
  </defs>
  <sodipodi:namedview
     id="base"
     pagecolor="#ffffff"
     bordercolor="#666666"
     borderopacity="1.0"
     inkscape:pageopacity="0.0"
     inkscape:pageshadow="2"
     inkscape:zoom="0.35"
     inkscape:cx="45"
     inkscape:cy="520"
     inkscape:document-units="px"
     inkscape:current-layer="layer1"
     showgrid="false"
     inkscape:window-width="1280"
     inkscape:window-height="968"
     inkscape:window-x="-4"
     inkscape:window-y="-4"
     inkscape:window-maximized="1" />
  <metadata
     id="metadata7">
    <rdf:RDF>
      <cc:Work
         rdf:about="">
        <dc:format>image/svg+xml</dc:format>
        <dc:type
           rdf:resource="http://purl.org/dc/dcmitype/StillImage" />
        <dc:title></dc:title>
      </cc:Work>
    </rdf:RDF>
  </metadata>
  <g
     inkscape:label="Calque 1"
     inkscape:groupmode="layer"
     id="layer1"
     transform="translate(0,-2.598425e-6)">
    <g
       id="g3469"
       transform="matrix(5.7018473,0,0,5.7018475,-51.932911,-22.449965)">
      <path
         inkscape:connector-curvature="0"
         id="path3434"
         d="M 73.169216,4.5439426 C 54.453084,6.1539075 17.508474,12.678547 13.006917,24.785146 8.4947478,36.891802 46.678709,58.234576 46.148978,77.162373 45.619529,96.090171 12.752691,119.85836 9.8399036,138.34138 6.9165329,156.82439 30.504836,169.95817 28.640476,188.04918"
         style="fill:none;stroke:#d0a80a;stroke-width:1.58879113px;stroke-linecap:butt;stroke-linejoin:round;stroke-miterlimit:4;stroke-dasharray:none;stroke-opacity:1" />
      <path
         inkscape:connector-curvature="0"
         id="path3436"
         d="M 72.014644,5.0311711 C 53.288071,6.6517475 24.700399,11.788813 22.370175,23.567075 20.029368,35.334782 57.641349,56.81528 58.012189,75.647687 58.382747,94.480093 25.335936,117.71884 24.605065,136.56197 c -0.730843,18.85357 30.886033,34.08482 29.021955,52.18627"
         style="fill:none;stroke:#862110;stroke-width:1.58879113px;stroke-linecap:butt;stroke-linejoin:round;stroke-miterlimit:4;stroke-dasharray:none;stroke-opacity:1" />
      <path
         inkscape:connector-curvature="0"
         id="path3438"
         d="M 71.993478,4.4803862 C 53.266904,6.1009626 31.913407,11.24864 31.023842,23.01629 c -0.889846,11.767594 34.307216,33.205759 35.641845,52.091223 1.334629,18.87474 -28.619309,42.251207 -27.623911,61.179007 0.985237,18.9278 35.419453,34.29677 33.555375,52.38778"
         style="fill:none;stroke:#e75c01;stroke-width:1.58879113px;stroke-linecap:butt;stroke-linejoin:round;stroke-miterlimit:4;stroke-dasharray:none;stroke-opacity:1" />
      <path
         inkscape:connector-curvature="0"
         id="path3440"
         d="M 76.05014,4.6710273 C 57.323567,6.2916037 20.389483,12.816243 15.877314,24.922842 11.375757,37.018802 49.559633,58.361576 49.030184,77.289373 48.500453,96.217171 15.6337,119.99609 12.720913,138.4791 9.797542,156.95139 33.38576,170.08545 31.510958,188.1869"
         style="fill:none;stroke:#d0a80a;stroke-width:1.58879113px;stroke-linecap:butt;stroke-linejoin:round;stroke-miterlimit:4;stroke-dasharray:none;stroke-opacity:1" />
      <path
         inkscape:connector-curvature="0"
         id="path3442"
         d="M 74.895569,5.1688673 C 56.168996,6.7788322 27.581408,11.926509 25.251184,23.69416 22.910377,35.461782 60.522273,56.952722 60.893113,75.785411 61.263671,94.617818 28.216916,117.84584 27.486074,136.69969 c -0.730843,18.84285 30.88623,34.08483 29.02187,52.17583"
         style="fill:none;stroke:#862110;stroke-width:1.58879113px;stroke-linecap:butt;stroke-linejoin:round;stroke-miterlimit:4;stroke-dasharray:none;stroke-opacity:1" />
      <path
         inkscape:connector-curvature="0"
         id="path3444"
         d="M 74.86396,4.6180824 C 56.147829,6.2280473 34.794613,11.375752 33.904767,23.143375 33.015202,34.921609 68.211982,56.359773 69.546611,75.234513 70.88124,94.109253 40.927302,117.48572 41.912258,136.41352 c 0.99568,18.9278 35.430178,34.29677 33.565818,52.3985"
         style="fill:none;stroke:#e75c01;stroke-width:1.58879113px;stroke-linecap:butt;stroke-linejoin:round;stroke-miterlimit:4;stroke-dasharray:none;stroke-opacity:1" />
      <path
         inkscape:connector-curvature="0"
         id="path3446"
         d="M 78.857122,4.4909695 C 60.130549,6.1009626 23.185769,12.636185 18.684184,24.742756 14.182598,36.838744 52.366616,58.181518 51.836884,77.109316 51.307436,96.037113 18.440569,119.8053 15.517199,138.28832 12.604411,156.77134 36.192742,169.90539 34.31794,187.9964"
         style="fill:none;stroke:#d0a80a;stroke-width:1.58879113px;stroke-linecap:butt;stroke-linejoin:round;stroke-miterlimit:4;stroke-dasharray:none;stroke-opacity:1" />
      <path
         inkscape:connector-curvature="0"
         id="path3448"
         d="M 77.702551,4.978198 C 58.975978,6.5987744 30.388278,11.746451 28.04747,23.514102 25.717218,35.281724 63.318531,56.762222 63.689371,75.605353 64.070653,94.43776 31.013118,117.66578 30.282444,136.51963 c -0.730955,18.84285 30.89656,34.08483 29.032483,52.17584"
         style="fill:none;stroke:#862110;stroke-width:1.58879113px;stroke-linecap:butt;stroke-linejoin:round;stroke-miterlimit:4;stroke-dasharray:none;stroke-opacity:1" />
      <path
         inkscape:connector-curvature="0"
         id="path3450"
         d="M 77.67066,4.4380246 C 58.944087,6.0479895 37.590871,11.195666 36.711749,22.963317 35.821902,34.731109 71.018964,56.179716 72.353593,75.054456 73.688222,93.929196 43.734002,117.30566 44.71924,136.23346 c 0.984956,18.9278 35.429896,34.29677 33.565818,52.38778"
         style="fill:none;stroke:#e75c01;stroke-width:1.58879113px;stroke-linecap:butt;stroke-linejoin:round;stroke-miterlimit:4;stroke-dasharray:none;stroke-opacity:1" />
      <path
         inkscape:connector-curvature="0"
         id="path3452"
         d="m 12.784469,78.210829 c 0,-5.062785 4.363889,-9.162062 9.733986,-9.162062 5.380707,0 9.733901,4.099277 9.733901,9.162062 0,5.052342 -4.353194,9.162062 -9.733901,9.162062 -5.370097,0 -9.733986,-4.10972 -9.733986,-9.162062 z"
         style="fill:#fe8637;fill-opacity:1;fill-rule:evenodd;stroke:none" />
      <path
         inkscape:connector-curvature="0"
         id="path3454"
         d="m 12.784469,78.210829 c 0,-5.062785 4.363889,-9.162062 9.733986,-9.162062 5.380707,0 9.733901,4.099277 9.733901,9.162062 0,5.052342 -4.353194,9.162062 -9.733901,9.162062 -5.370097,0 -9.733986,-4.10972 -9.733986,-9.162062"
         style="fill:none;stroke:#0070c0;stroke-width:0.70965999px;stroke-linecap:butt;stroke-linejoin:round;stroke-miterlimit:4;stroke-dasharray:none;stroke-opacity:1" />
      <path
         inkscape:connector-curvature="0"
         id="path3456"
         d="m 61.284838,26.596364 c 0,-3.929606 3.304822,-7.117786 7.382651,-7.117786 4.077829,0 7.382651,3.18818 7.382651,7.117786 0,3.940076 -3.304822,7.12834 -7.382651,7.12834 -4.077829,0 -7.382651,-3.188264 -7.382651,-7.12834 z"
         style="fill:#d0a80a;fill-opacity:1;fill-rule:evenodd;stroke:none" />
      <path
         inkscape:connector-curvature="0"
         id="path3458"
         d="m 61.284838,26.596364 c 0,-3.929606 3.304822,-7.117786 7.382651,-7.117786 4.077829,0 7.382651,3.18818 7.382651,7.117786 0,3.940076 -3.304822,7.12834 -7.382651,7.12834 -4.077829,0 -7.382651,-3.188264 -7.382651,-7.12834"
         style="fill:none;stroke:#7598d9;stroke-width:0.70965999px;stroke-linecap:butt;stroke-linejoin:round;stroke-miterlimit:4;stroke-dasharray:none;stroke-opacity:1" />
      <path
         inkscape:connector-curvature="0"
         id="path3460"
         d="m 15.125305,58.785191 c 0,-2.531533 2.181916,-4.586111 4.861701,-4.586111 2.69034,0 4.872284,2.054578 4.872284,4.586111 0,2.521091 -2.181944,4.575669 -4.872284,4.575669 -2.679785,0 -4.861701,-2.054578 -4.861701,-4.575669 z"
         style="fill:#7598d9;fill-opacity:1;fill-rule:evenodd;stroke:none" />
      <path
         inkscape:connector-curvature="0"
         id="path3462"
         d="m 15.125305,58.785191 c 0,-2.531533 2.181916,-4.586111 4.861701,-4.586111 2.69034,0 4.872284,2.054578 4.872284,4.586111 0,2.521091 -2.181944,4.575669 -4.872284,4.575669 -2.679785,0 -4.861701,-2.054578 -4.861701,-4.575669"
         style="fill:none;stroke:#0070c0;stroke-width:0.70965999px;stroke-linecap:butt;stroke-linejoin:round;stroke-miterlimit:4;stroke-dasharray:none;stroke-opacity:1" />
    </g>
  </g>
</svg>
