<?xml version="1.0" encoding="UTF-8" standalone="no"?>
<!-- Created with Inkscape (http://www.inkscape.org/) -->

<svg
   xmlns:dc="http://purl.org/dc/elements/1.1/"
   xmlns:cc="http://creativecommons.org/ns#"
   xmlns:rdf="http://www.w3.org/1999/02/22-rdf-syntax-ns#"
   xmlns:svg="http://www.w3.org/2000/svg"
   xmlns="http://www.w3.org/2000/svg"
   xmlns:sodipodi="http://sodipodi.sourceforge.net/DTD/sodipodi-0.dtd"
   xmlns:inkscape="http://www.inkscape.org/namespaces/inkscape"
   width="135mm"
   height="297mm"
   viewBox="0 0 478.34647 1052.3622"
   id="svg2"
   version="1.1"
   inkscape:version="0.91 r13725"
   sodipodi:docname="fond-gauche.svg">
  <defs
     id="defs4">
    <pattern
       y="0"
       x="0"
       height="6"
       width="6"
       patternUnits="userSpaceOnUse"
       id="EMFhbasepattern" />
  </defs>
  <sodipodi:namedview
     id="base"
     pagecolor="#ffffff"
     bordercolor="#666666"
     borderopacity="1.0"
     inkscape:pageopacity="0.0"
     inkscape:pageshadow="2"
     inkscape:zoom="0.35"
     inkscape:cx="45"
     inkscape:cy="520"
     inkscape:document-units="px"
     inkscape:current-layer="layer1"
     showgrid="false"
     inkscape:window-width="1280"
     inkscape:window-height="968"
     inkscape:window-x="-4"
     inkscape:window-y="-4"
     inkscape:window-maximized="1" />
  <metadata
     id="metadata7">
    <rdf:RDF>
      <cc:Work
         rdf:about="">
        <dc:format>image/svg+xml</dc:format>
        <dc:type
           rdf:resource="http://purl.org/dc/dcmitype/StillImage" />
        <dc:title></dc:title>
      </cc:Work>
    </rdf:RDF>
  </metadata>
  <g
     inkscape:label="Calque 1"
     inkscape:groupmode="layer"
     id="layer1"
     transform="translate(0,-2.598425e-6)">
    <g
       id="g3400"
       transform="matrix(5.6619018,0,0,5.6619019,-14.332097,0.65820002)">
      <path
         inkscape:connector-curvature="0"
         id="path3341"
         d="m 19.727503,113.94807 c 0,-10.78258 8.134604,-19.531472 18.170426,-19.531472 10.035822,0 18.170595,8.748892 18.170595,19.531472 0,10.78794 -8.134773,19.53147 -18.170595,19.53147 -10.035822,0 -18.170426,-8.74353 -18.170426,-19.53147 z"
         style="fill:#ff0000;fill-opacity:1;fill-rule:evenodd;stroke:none" />
      <path
         inkscape:connector-curvature="0"
         id="path3343"
         d="m 19.727503,113.94807 c 0,-10.78258 8.134604,-19.531472 18.170426,-19.531472 10.035822,0 18.170595,8.748892 18.170595,19.531472 0,10.78794 -8.134773,19.53147 -18.170595,19.53147 -10.035822,0 -18.170426,-8.74353 -18.170426,-19.53147"
         style="fill:none;stroke:#0070c0;stroke-width:0.70436406px;stroke-linecap:butt;stroke-linejoin:round;stroke-miterlimit:4;stroke-dasharray:none;stroke-opacity:1" />
      <path
         inkscape:connector-curvature="0"
         id="path3345"
         d="m 24.671274,20.235898 c 0,-10.7852353 8.134519,-19.53153342 18.167802,-19.53153342 10.035822,0 18.170595,8.74629812 18.170595,19.53153342 0,10.787944 -8.134773,19.531471 -18.170595,19.531471 -10.033283,0 -18.167802,-8.743527 -18.167802,-19.531471 z"
         style="fill:#ff0000;fill-opacity:1;fill-rule:evenodd;stroke:none" />
      <path
         inkscape:connector-curvature="0"
         id="path3347"
         d="m 24.671274,20.235898 c 0,-10.7852353 8.134519,-19.53153342 18.167802,-19.53153342 10.035822,0 18.170595,8.74629812 18.170595,19.53153342 0,10.787944 -8.134773,19.531471 -18.170595,19.531471 -10.033283,0 -18.167802,-8.743527 -18.167802,-19.531471"
         style="fill:none;stroke:#0070c0;stroke-width:0.70701206px;stroke-linecap:butt;stroke-linejoin:round;stroke-miterlimit:4;stroke-dasharray:none;stroke-opacity:1" />
      <path
         inkscape:connector-curvature="0"
         id="path3349"
         d="m 52.81676,127.7335 c 0,-3.93503 3.30454,-7.12301 7.382651,-7.12301 4.077829,0 7.387731,3.18798 7.387731,7.12301 0,3.93502 -3.309902,7.123 -7.387731,7.123 -4.078111,0 -7.382651,-3.18798 -7.382651,-7.123 z"
         style="fill:#e75c01;fill-opacity:1;fill-rule:evenodd;stroke:none" />
      <path
         inkscape:connector-curvature="0"
         id="path3351"
         d="m 52.81676,127.7335 c 0,-3.93503 3.30454,-7.12301 7.382651,-7.12301 4.077829,0 7.387731,3.18798 7.387731,7.12301 0,3.93502 -3.309902,7.123 -7.387731,7.123 -4.078111,0 -7.382651,-3.18798 -7.382651,-7.123"
         style="fill:none;stroke:#7598d9;stroke-width:0.70436406px;stroke-linecap:butt;stroke-linejoin:round;stroke-miterlimit:4;stroke-dasharray:none;stroke-opacity:1" />
      <path
         inkscape:connector-curvature="0"
         id="path3353"
         d="m 29.699938,149.19819 c 0.804898,24.58381 10.644858,29.72082 14.383738,33.99987 -2.277252,2.86004 -36.7222762,4.31095 -39.7092033,0.0849 -3.3364622,1.44047 13.2293363,-13.61073 13.8542603,-33.54465 -0.98504,-20.33665 -8.2829114,-26.56473 -5.6561,-29.7846 2.637395,-3.21988 17.720254,-2.83859 20.66496,0.10583 5.878407,3.24132 -2.722315,10.61325 -3.537655,29.1386 z"
         style="fill:#7598d9;fill-opacity:1;fill-rule:evenodd;stroke:none" />
      <path
         inkscape:connector-curvature="0"
         id="path3355"
         d="m 29.699938,149.19819 c 0.804898,24.58381 10.644858,29.72082 14.383738,33.99987 -2.277252,2.86004 -36.7222762,4.31095 -39.7092033,0.0849 -3.3364622,1.44047 13.2293363,-13.61073 13.8542603,-33.54465 -0.98504,-20.33665 -8.2829114,-26.56473 -5.6561,-29.7846 2.637395,-3.21988 17.720254,-2.83859 20.66496,0.10583 5.878407,3.24132 -2.722315,10.61325 -3.537655,29.1386"
         style="fill:none;stroke:#e75c01;stroke-width:1.05919409px;stroke-linecap:butt;stroke-linejoin:round;stroke-miterlimit:4;stroke-dasharray:none;stroke-opacity:1" />
      <path
         inkscape:connector-curvature="0"
         id="path3357"
         d="m 29.694576,75.653053 c 0.804897,19.107856 6.614724,22.327729 4.342553,24.551927 -2.271889,2.22447 -18.91713,1.75316 -21.194409,-1.249684 -2.277251,-3.002845 4.755783,-7.388014 5.386013,-22.878627 -0.98504,-15.808396 -8.288189,-20.643709 -5.6561,-23.148713 2.637395,-2.505005 17.714891,-2.203027 20.659598,0.08467 5.883769,2.515729 -2.716953,8.245969 -3.537655,22.640431 z"
         style="fill:#7598d9;fill-opacity:1;fill-rule:evenodd;stroke:none" />
      <path
         inkscape:connector-curvature="0"
         id="path3359"
         d="m 29.694576,75.653053 c 0.804897,19.107856 6.614724,22.327729 4.342553,24.551927 -2.271889,2.22447 -18.91713,1.75316 -21.194409,-1.249684 -2.277251,-3.002845 4.755783,-7.388014 5.386013,-22.878627 -0.98504,-15.808396 -8.288189,-20.643709 -5.6561,-23.148713 2.637395,-2.505005 17.714891,-2.203027 20.659598,0.08467 5.883769,2.515729 -2.716953,8.245969 -3.537655,22.640431"
         style="fill:none;stroke:#e75c01;stroke-width:1.05919409px;stroke-linecap:butt;stroke-linejoin:round;stroke-miterlimit:4;stroke-dasharray:none;stroke-opacity:1" />
      <path
         inkscape:connector-curvature="0"
         id="path3361"
         d="M 29.466822,22.973933 24.202588,175.98503 19.27733,22.973933 Z"
         style="fill:#fe8637;fill-opacity:1;fill-rule:evenodd;stroke:none" />
      <path
         inkscape:connector-curvature="0"
         id="path3363"
         d="M 29.466822,22.973933 24.202588,175.98503 19.27733,22.973933 Z"
         style="fill:none;stroke:#bb6126;stroke-width:0.70965999px;stroke-linecap:butt;stroke-linejoin:round;stroke-miterlimit:4;stroke-dasharray:none;stroke-opacity:1" />
      <path
         inkscape:connector-curvature="0"
         id="path3365"
         d="M 38.610258,27.936246 C 39.635007,31.622153 34.055756,45.59046 31.219704,47.666487 28.381113,49.745053 26.156807,31.775682 24.14699,31.728269 22.137144,31.680573 20.76021,49.601967 18.136052,47.380313 15.511893,45.15866 8.19023,31.354889 9.1726173,27.716452 12.416395,20.317996 18.996632,14.910816 24.292616,12.683857 c 5.626891,2.512935 11.51066,7.279301 14.317642,15.252389 z"
         style="fill:#7598d9;fill-opacity:1;fill-rule:evenodd;stroke:none" />
      <path
         inkscape:connector-curvature="0"
         id="path3367"
         d="M 38.610258,27.936246 C 39.635007,31.622153 34.055756,45.59046 31.219704,47.666487 28.381113,49.745053 26.156807,31.775682 24.14699,31.728269 22.137144,31.680573 20.76021,49.601967 18.136052,47.380313 15.511893,45.15866 8.19023,31.354889 9.1726173,27.716452 12.416395,20.317996 18.996632,14.910816 24.292616,12.683857 c 5.626891,2.512935 11.51066,7.279301 14.317642,15.252389"
         style="fill:none;stroke:#e75c01;stroke-width:1.05919409px;stroke-linecap:butt;stroke-linejoin:round;stroke-miterlimit:4;stroke-dasharray:none;stroke-opacity:1" />
      <path
         inkscape:connector-curvature="0"
         id="path3369"
         d="m 28.291084,14.95583 c 0.222392,2.743313 0.317783,8.145188 2.097194,13.16578 1.790135,5.031034 8.706555,11.55573 8.621889,17.000079 -0.07423,5.444349 -6.895536,9.490287 -9.066671,15.6972 -2.18203,6.196189 -3.707272,14.955802 -1.917221,23.429524 1.779496,8.47344 15.241778,11.365089 12.615136,27.433127 -2.955149,18.08029 -14.076821,15.29475 -16.491797,69.50428 z"
         style="fill:#ffc000;fill-opacity:1;fill-rule:evenodd;stroke:none" />
      <path
         inkscape:connector-curvature="0"
         id="path3371"
         d="m 28.291084,14.95583 c 0.222392,2.743313 0.317783,8.145188 2.097194,13.16578 1.790135,5.031034 8.706555,11.55573 8.621889,17.000079 -0.07423,5.444349 -6.895536,9.490287 -9.066671,15.6972 -2.18203,6.196189 -3.707272,14.955802 -1.917221,23.429524 1.779496,8.47344 15.241778,11.365089 12.615136,27.433127 -2.955149,18.08029 -14.076821,15.29475 -16.491797,69.50428"
         style="fill:none;stroke:#bb6126;stroke-width:0.70965999px;stroke-linecap:butt;stroke-linejoin:round;stroke-miterlimit:4;stroke-dasharray:none;stroke-opacity:1" />
      <path
         inkscape:connector-curvature="0"
         id="path3373"
         d="m 20.124674,14.913441 c -0.243614,2.743313 -0.338921,8.145215 -2.309029,13.176391 -1.959497,5.031204 -9.5539281,11.545175 -9.469205,16.989524 0.084751,5.454791 7.583847,9.501011 9.967016,15.6972 2.393781,6.196188 4.067302,14.955802 2.107805,23.429242 -1.959497,8.484164 -16.7458528,11.365371 -13.8648437,27.433132 3.251708,18.08056 15.4748087,15.29475 18.1228157,69.50456 z"
         style="fill:#ffc000;fill-opacity:1;fill-rule:evenodd;stroke:none" />
      <path
         inkscape:connector-curvature="0"
         id="path3375"
         d="m 20.124674,14.913441 c -0.243614,2.743313 -0.338921,8.145215 -2.309029,13.176391 -1.959497,5.031204 -9.5539281,11.545175 -9.469205,16.989524 0.084751,5.454791 7.583847,9.501011 9.967016,15.6972 2.393781,6.196188 4.067302,14.955802 2.107805,23.429242 -1.959497,8.484164 -16.7458528,11.365371 -13.8648437,27.433132 3.251708,18.08056 15.4748087,15.29475 18.1228157,69.50456"
         style="fill:none;stroke:#bb6126;stroke-width:0.70965999px;stroke-linecap:butt;stroke-linejoin:round;stroke-miterlimit:4;stroke-dasharray:none;stroke-opacity:1" />
      <path
         inkscape:connector-curvature="0"
         id="path3377"
         d="m 39.98976,142.64696 c 0,-5.06306 4.35864,-9.16742 9.734127,-9.16742 5.375486,0 9.733844,4.10436 9.733844,9.16742 0,5.05771 -4.358358,9.16207 -9.733844,9.16207 -5.375487,0 -9.734127,-4.10436 -9.734127,-9.16207 z"
         style="fill:#fe8637;fill-opacity:1;fill-rule:evenodd;stroke:none" />
      <path
         inkscape:connector-curvature="0"
         id="path3379"
         d="m 39.98976,142.64696 c 0,-5.06306 4.35864,-9.16742 9.734127,-9.16742 5.375486,0 9.733844,4.10436 9.733844,9.16742 0,5.05771 -4.358358,9.16207 -9.733844,9.16207 -5.375487,0 -9.734127,-4.10436 -9.734127,-9.16207"
         style="fill:none;stroke:#0070c0;stroke-width:0.70436406px;stroke-linecap:butt;stroke-linejoin:round;stroke-miterlimit:4;stroke-dasharray:none;stroke-opacity:1" />
      <path
         inkscape:connector-curvature="0"
         id="path3381"
         d="m 45.428747,163.59773 c 0,-3.93474 3.310184,-7.12301 7.388013,-7.12301 4.077829,0 7.382651,3.18827 7.382651,7.12301 0,3.93503 -3.304822,7.12329 -7.382651,7.12329 -4.077829,0 -7.388013,-3.18826 -7.388013,-7.12329 z"
         style="fill:#d0a80a;fill-opacity:1;fill-rule:evenodd;stroke:none" />
      <path
         inkscape:connector-curvature="0"
         id="path3383"
         d="m 45.428747,163.59773 c 0,-3.93474 3.310184,-7.12301 7.388013,-7.12301 4.077829,0 7.382651,3.18827 7.382651,7.12301 0,3.93503 -3.304822,7.12329 -7.382651,7.12329 -4.077829,0 -7.388013,-3.18826 -7.388013,-7.12329"
         style="fill:none;stroke:#7598d9;stroke-width:0.70436406px;stroke-linecap:butt;stroke-linejoin:round;stroke-miterlimit:4;stroke-dasharray:none;stroke-opacity:1" />
      <path
         inkscape:connector-curvature="0"
         id="path3385"
         d="m 44.899298,24.390604 c 0,-1.967456 1.652411,-3.56156 3.691184,-3.56156 2.039056,0 3.694007,1.594104 3.694007,3.56156 0,1.964803 -1.654951,3.561532 -3.694007,3.561532 -2.038773,0 -3.691184,-1.596729 -3.691184,-3.561532 z"
         style="fill:#862110;fill-opacity:1;fill-rule:evenodd;stroke:none" />
      <path
         inkscape:connector-curvature="0"
         id="path3387"
         d="m 53.12918,15.842883 c 0,-3.932259 3.307362,-7.123063 7.385191,-7.123063 4.077829,0 7.385191,3.190804 7.385191,7.123063 0,3.934912 -3.307362,7.123091 -7.385191,7.123091 -4.077829,0 -7.385191,-3.188179 -7.385191,-7.123091 z"
         style="fill:#e75c01;fill-opacity:1;fill-rule:evenodd;stroke:none" />
      <path
         inkscape:connector-curvature="0"
         id="path3389"
         d="m 53.12918,15.842883 c 0,-3.932259 3.307362,-7.123063 7.385191,-7.123063 4.077829,0 7.385191,3.190804 7.385191,7.123063 0,3.934912 -3.307362,7.123091 -7.385191,7.123091 -4.077829,0 -7.385191,-3.188179 -7.385191,-7.123091"
         style="fill:none;stroke:#7598d9;stroke-width:0.70701206px;stroke-linecap:butt;stroke-linejoin:round;stroke-miterlimit:4;stroke-dasharray:none;stroke-opacity:1" />
      <path
         inkscape:connector-curvature="0"
         id="path3391"
         d="m 70.968729,7.8274333 c 0,-3.9322586 3.30454,-7.12306872 7.385191,-7.12306872 4.077829,0 7.385191,3.19081012 7.385191,7.12306872 0,3.9349117 -3.307362,7.1230917 -7.385191,7.1230917 -4.080651,0 -7.385191,-3.18818 -7.385191,-7.1230917 z"
         style="fill:#d0a80a;fill-opacity:1;fill-rule:evenodd;stroke:none" />
      <path
         inkscape:connector-curvature="0"
         id="path3393"
         d="m 70.968729,7.8274333 c 0,-3.9322586 3.30454,-7.12306872 7.385191,-7.12306872 4.077829,0 7.385191,3.19081012 7.385191,7.12306872 0,3.9349117 -3.307362,7.1230917 -7.385191,7.1230917 -4.080651,0 -7.385191,-3.18818 -7.385191,-7.1230917"
         style="fill:none;stroke:#7598d9;stroke-width:0.70701206px;stroke-linecap:butt;stroke-linejoin:round;stroke-miterlimit:4;stroke-dasharray:none;stroke-opacity:1" />
    </g>
  </g>
</svg>
