<?xml version="1.0" encoding="UTF-8" standalone="no"?>
<!-- Created with Inkscape (http://www.inkscape.org/) -->

<svg
   xmlns:dc="http://purl.org/dc/elements/1.1/"
   xmlns:cc="http://creativecommons.org/ns#"
   xmlns:rdf="http://www.w3.org/1999/02/22-rdf-syntax-ns#"
   xmlns:svg="http://www.w3.org/2000/svg"
   xmlns="http://www.w3.org/2000/svg"
   xmlns:sodipodi="http://sodipodi.sourceforge.net/DTD/sodipodi-0.dtd"
   xmlns:inkscape="http://www.inkscape.org/namespaces/inkscape"
   width="100"
   height="100"
   viewBox="0 0 100 100"
   id="svg2"
   version="1.1"
   inkscape:version="0.91 r13725"
   sodipodi:docname="ncis.svg">
  <defs
     id="defs4" />
  <sodipodi:namedview
     id="base"
     pagecolor="#ffffff"
     bordercolor="#666666"
     borderopacity="1.0"
     inkscape:pageopacity="0.0"
     inkscape:pageshadow="2"
     inkscape:zoom="5.6"
     inkscape:cx="57.626059"
     inkscape:cy="51.641194"
     inkscape:document-units="px"
     inkscape:current-layer="layer1"
     showgrid="false"
     units="px"
     fit-margin-top="0"
     fit-margin-left="0"
     fit-margin-right="0"
     fit-margin-bottom="0"
     inkscape:window-width="1280"
     inkscape:window-height="968"
     inkscape:window-x="-4"
     inkscape:window-y="-4"
     inkscape:window-maximized="1" />
  <metadata
     id="metadata7">
    <rdf:RDF>
      <cc:Work
         rdf:about="">
        <dc:format>image/svg+xml</dc:format>
        <dc:type
           rdf:resource="http://purl.org/dc/dcmitype/StillImage" />
        <dc:title></dc:title>
      </cc:Work>
    </rdf:RDF>
  </metadata>
  <g
     inkscape:label="Calque 1"
     inkscape:groupmode="layer"
     id="layer1"
     transform="translate(-57.922247,-533.646)">
    <g
       id="g3410"
       transform="matrix(0.13808035,0,0,0.13735387,64.031466,539.64799)">
      <path
         id="path3339"
         d="m 552.13129,514.82278 c 0,0 0.0146,0.66407 0.0342,1.94824 -0.0146,1.28419 -0.0732,3.21778 -0.53711,5.68848 -0.83496,4.93652 -3.4961,12.14356 -9.43848,19.58984 -5.89843,7.43164 -14.6875,15.1123 -25.87891,22.00195 -5.57129,3.4961 -11.72362,6.81641 -18.3496,10.01954 -6.63086,3.18847 -13.77442,6.14257 -21.32325,8.95019 -15.10254,5.61523 -31.86524,10.53711 -49.86327,14.43847 -17.98829,3.95996 -37.16309,7.14844 -57.12403,9.25781 -19.96094,2.13868 -40.68847,3.3252 -61.7627,3.46191 -21.06934,0.1709 -42.49024,-0.7373 -63.83789,-2.73437 -21.33301,-2.06543 -42.59766,-5.2246 -63.27148,-9.8291 -10.3418,-2.2705 -20.52734,-4.92675 -30.47852,-7.98827 -9.95117,-3.07129 -19.69238,-6.48438 -29.05761,-10.50294 -9.35547,-4.01366 -18.41797,-8.44726 -26.835935,-13.75 -8.403325,-5.2832 -16.274425,-11.30859 -22.875988,-18.5498 -3.2666,-3.64746 -6.20605,-7.60742 -8.540037,-11.93847 -2.294913,-4.33594 -4.0332,-9.02833 -4.682613,-13.88673 -0.21485,-1.20116 -0.253912,-2.42675 -0.35645,-3.63281 l -0.02437,-1.81151 -0.005,-0.44923 0,-0.22948 c 0.005,-0.44923 0.01,-0.23438 0.01463,-0.38575 l 0.05375,-0.79102 0.107375,-1.57226 c 0.05375,-0.56641 0.15625,-1.23535 0.239263,-1.84082 0.151362,-1.2793 0.419912,-2.41212 0.688475,-3.54004 1.098625,-4.53614 2.9834,-8.68164 5.258787,-12.34864 4.580075,-7.35838 10.473638,-12.93945 16.357425,-17.57323 5.957025,-4.5752 11.977538,-8.24708 17.7832,-11.32324 11.611328,-6.17187 22.299798,-10.11719 31.142578,-13.07129 8.84277,-2.97363 15.9375,-4.77051 20.76172,-5.99121 2.40723,-0.625 4.27734,-1.01562 5.52734,-1.31347 1.25489,-0.28322 1.89941,-0.43458 1.89941,-0.43458 0,0 -2.5,0.8789 -7.19237,2.51953 -4.6875,1.6504 -11.50879,4.21875 -20.00978,7.82715 -4.24804,1.80665 -8.8916,3.92578 -13.83789,6.42578 -4.93652,2.51465 -10.22461,5.31738 -15.61035,8.6914 -5.395508,3.34473 -10.893545,7.25586 -16.137695,11.88965 -5.170888,4.65333 -10.249013,10.00489 -13.725575,16.41601 -1.74805,3.17871 -3.05665,6.60645 -3.710938,10.16114 -0.161137,0.88867 -0.32715,1.79199 -0.366212,2.59766 -0.03413,0.4248 -0.09275,0.79589 -0.117125,1.27441 l -0.0195,1.57715 -0.01463,0.78613 c 0.005,-0.0146 -0.005,0.32715 0.005,0.01 l 0.01462,0.16602 0.02437,0.34179 0.08788,1.36719 c 0.1416,0.90332 0.2002,1.81641 0.424812,2.71485 0.708,3.61816 2.124013,7.17774 4.106438,10.58105 2.006837,3.38867 4.5752,6.60645 7.495125,9.62891 5.92285,6.01562 13.232412,11.23046 21.1914,15.80566 7.98829,4.55078 16.58691,8.59864 25.60547,12.13867 9.01367,3.5498 18.41797,6.66992 28.06152,9.43848 9.65821,2.73925 19.55567,5.15625 29.61426,7.26562 20.13184,4.16504 40.87402,7.22657 61.73829,9.16993 20.85937,2.03125 41.83593,2.96386 62.49511,3.10546 10.33202,0.0292 20.58105,-0.10738 30.69824,-0.46875 10.11718,-0.38574 20.10253,-0.98145 29.91211,-1.75293 19.60449,-1.62597 38.50097,-3.93066 56.23535,-7.13867 8.87207,-1.58204 17.43652,-3.42774 25.6836,-5.37597 8.24706,-1.9336 16.14257,-4.0918 23.63769,-6.4209 14.96582,-4.71192 28.37891,-10.02442 39.58985,-16.00586 11.21093,-5.9668 20.23437,-12.54883 26.45018,-19.18945 3.08107,-3.33008 5.47853,-6.62598 7.24122,-9.6875 1.7627,-3.06641 2.85645,-5.9082 3.52051,-8.27149 0.67382,-2.36816 0.96191,-4.23827 1.1084,-5.51757 0.11712,-1.2793 0.17577,-1.93848 0.17577,-1.93848"
         style="fill:#3a1100;fill-opacity:1;fill-rule:nonzero;stroke:none"
         inkscape:connector-curvature="0" />
      <path
         id="path3341"
         d="m 501.88227,584.5591 c 0,0 -1.2207,1.02052 -3.51074,2.92969 -1.16211,0.93261 -2.51952,2.16798 -4.35059,3.35449 -1.79198,1.22558 -3.84765,2.72461 -6.25,4.19433 -2.43163,1.3916 -5.10254,3.00294 -8.08105,4.64357 -1.51367,0.75683 -3.09082,1.54785 -4.72168,2.36816 -1.65527,0.78612 -3.33008,1.71875 -5.13672,2.46094 -7.15332,3.17382 -15.38086,6.49413 -24.56055,9.42871 -2.2998,0.73241 -4.64355,1.48437 -7.03125,2.24609 -2.41211,0.67871 -4.86816,1.37207 -7.36816,2.07031 -4.99024,1.48437 -10.22949,2.60254 -15.5957,3.9209 -2.68066,0.68847 -5.42969,1.17187 -8.19825,1.74316 -2.77831,0.55664 -5.58594,1.11329 -8.42773,1.67969 -2.85156,0.4834 -5.73731,0.97168 -8.64746,1.45996 -2.91504,0.49316 -5.85937,0.97656 -8.83789,1.35742 -2.97852,0.40528 -5.98145,0.81543 -9.0088,1.22559 -3.02733,0.4248 -6.08886,0.66894 -9.16015,1.01074 -3.07617,0.3125 -6.17187,0.66406 -9.28711,0.94239 -3.11524,0.22948 -6.25,0.4541 -9.39941,0.68358 -3.14453,0.23438 -6.30371,0.46388 -9.47754,0.58594 -3.17382,0.13673 -6.35253,0.27344 -9.54101,0.41504 -6.37696,0.2295 -12.78321,0.23926 -19.18946,0.36621 l -9.58984,-0.14649 c -3.17871,-0.0684 -6.28906,-0.0489 -9.52149,-0.21483 -6.40625,-0.26368 -12.82715,-0.47852 -19.10156,-0.99122 -3.14453,-0.22948 -6.2793,-0.4541 -9.39941,-0.67871 -3.11035,-0.27831 -6.20605,-0.63476 -9.28223,-0.94237 -6.15722,-0.58107 -12.2168,-1.39649 -18.16895,-2.23145 -2.9834,-0.38087 -5.92285,-0.86914 -8.83788,-1.35743 -2.91504,-0.49316 -5.80078,-0.98144 -8.65234,-1.45996 -2.8418,-0.5664 -5.64943,-1.12793 -8.42774,-1.67969 -2.76856,-0.57616 -5.51757,-1.05468 -8.19825,-1.74316 -5.3662,-1.31836 -10.60546,-2.4414 -15.5957,-3.9209 -2.5,-0.70312 -4.95605,-1.3916 -7.36816,-2.07031 -2.39258,-0.7666 -4.73633,-1.51366 -7.03125,-2.25098 -9.17969,-2.93945 -17.40723,-6.25487 -24.56543,-9.42871 -1.80665,-0.74706 -3.48145,-1.68456 -5.13183,-2.46581 -1.63576,-0.82031 -3.20802,-1.61134 -4.72657,-2.37305 -2.97364,-1.64063 -5.64453,-3.25195 -8.07128,-4.64355 -2.39747,-1.46974 -4.43848,-2.95411 -6.22559,-4.17969 -1.82129,-1.18165 -3.21289,-2.43652 -4.375,-3.37402 -2.29004,-1.91406 -3.51563,-2.93458 -3.51563,-2.93458 0,0 1.39649,0.76173 4.01368,2.19239 2.51464,1.55761 6.54785,3.26171 11.52344,5.54199 2.57323,0.98632 5.38085,2.13867 8.48143,3.27148 3.17383,0.98633 6.50391,2.24609 10.16114,3.33008 7.32421,2.15332 15.61524,4.42871 24.80956,6.34766 2.29005,0.49316 4.62891,1.00098 7.01173,1.51366 2.40233,0.43947 4.84864,0.88868 7.33886,1.34278 4.95117,0.98632 10.1416,1.71387 15.44434,2.56836 5.3125,0.80078 10.7959,1.48926 16.38672,2.23145 5.62988,0.52734 11.32813,1.3623 17.18261,1.81151 5.84962,0.4834 11.77247,1.09864 17.80762,1.44044 3.0127,0.19043 6.04005,0.42969 9.08692,0.59081 3.05175,0.15138 6.11328,0.30274 9.18945,0.45412 6.16699,0.39062 12.31934,0.38085 18.51563,0.63963 6.17187,0.18068 12.70996,0.13673 18.833,0.22462 6.25977,-0.0781 12.52442,-0.039 18.75488,-0.21973 6.22559,-0.2539 12.44629,-0.23926 18.59375,-0.63476 3.07618,-0.14649 6.14258,-0.29785 9.18945,-0.44923 3.04688,-0.16112 6.07423,-0.3955 9.08692,-0.59081 6.03027,-0.34669 11.9629,-0.94727 17.80762,-1.43555 2.92969,-0.21972 5.81543,-0.55176 8.67675,-0.88379 2.86621,-0.3125 5.70313,-0.62012 8.51075,-0.92773 5.59081,-0.7373 11.07421,-1.43067 16.38671,-2.23145 5.30274,-0.8496 10.49317,-1.58692 15.44434,-2.56348 2.49024,-0.45897 4.93653,-0.9082 7.33888,-1.34765 2.38281,-0.5127 4.72167,-1.01562 7.01171,-1.51367 9.19434,-1.92383 17.48535,-4.19922 24.80957,-6.35254 3.65723,-1.08886 6.9873,-2.34375 10.16113,-3.33496 3.09571,-1.13282 5.90332,-2.29004 8.47656,-3.27637 4.94629,-2.26562 8.97461,-3.95996 11.51856,-5.54199 2.62207,-1.43554 4.01367,-2.19727 4.01367,-2.19727"
         style="fill:#3a1100;fill-opacity:1;fill-rule:nonzero;stroke:none"
         inkscape:connector-curvature="0" />
      <path
         id="path3343"
         d="m 464.84614,375.68704 c 0,0 -0.0537,-0.63963 -0.16114,-1.875 -0.13183,-1.23046 -0.58593,-3.03222 -1.56737,-5.21972 -1.10353,-2.1289 -2.79786,-4.58496 -5.27344,-7.03612 -2.46094,-2.46094 -5.68849,-4.86329 -9.53125,-7.15333 -3.84277,-2.29004 -8.30079,-4.47265 -13.29102,-6.51367 -4.99512,-2.04102 -10.54688,-3.84278 -16.53809,-5.5371 -11.9873,-3.36915 -25.83495,-5.99121 -41.05469,-7.64161 -7.60741,-0.83984 -15.55175,-1.49902 -23.78417,-1.90918 -8.23243,-0.35645 -16.76758,-0.48827 -25.49317,-0.37597 -17.51465,0.19531 -35.91308,1.43066 -54.73632,3.87695 -9.40919,1.20117 -18.91603,2.75391 -28.40821,4.75097 -9.49219,1.95801 -19.00879,4.292 -28.30567,7.23634 -4.66308,1.43553 -9.22362,3.125 -13.6914,4.9414 -4.47266,1.80176 -8.81836,3.84277 -12.82715,6.18652 -3.96972,2.34864 -7.75878,4.95118 -10.50781,7.87109 -0.63476,0.73731 -1.3623,1.4502 -1.83105,2.19727 -0.24415,0.37109 -0.59082,0.72754 -0.76172,1.09863 -0.19532,0.36621 -0.39552,0.72754 -0.61035,1.08399 -0.20508,0.35645 -0.27344,0.70801 -0.43458,1.0498 l -0.21484,0.50781 c -0.005,0.0927 -0.0195,0.18555 -0.044,0.26856 -0.0244,0.0879 -0.0586,0.17577 -0.10737,0.25879 -0.0195,0.044 -0.0489,0.0781 -0.0733,0.13671 l -0.039,0.47852 -0.15136,1.91407 c 0.0537,-1.15235 0.0244,-0.24903 0.039,-0.47364 l 0.0195,0.11712 0.0244,0.23927 0.0244,0.4834 c -0.039,0.32226 0.15625,0.65428 0.2002,0.98632 l 0.0976,0.49805 c 0.0635,0.17578 0.15136,0.34668 0.21484,0.51758 0.16601,0.34667 0.22949,0.69823 0.43945,1.05468 0.20996,0.35644 0.41504,0.71778 0.61035,1.08399 0.16602,0.37109 0.51759,0.72754 0.76172,1.09863 0.46875,0.74707 1.19629,1.45996 1.82618,2.19726 0.68847,0.72266 1.48437,1.4209 2.24121,2.1338 0.86425,0.65917 1.65039,1.37206 2.56348,2.0166 1.7871,1.31835 3.70116,2.56347 5.70312,3.73535 4.00879,2.34375 8.35449,4.37987 12.82715,6.18652 4.46289,1.83594 9.02831,3.51563 13.6914,4.95117 9.29199,2.96874 18.81836,5.27343 28.30566,7.25098 9.49708,1.99706 19.00392,3.5498 28.41309,4.74609 9.40918,1.19629 18.71583,2.16797 27.86133,2.79297 2.28027,0.1416 4.5459,0.27832 6.79687,0.41992 2.28028,0.10737 4.55079,0.20996 6.80665,0.31738 4.44335,0.1709 8.90136,0.30762 13.2666,0.34668 8.75,0.10737 17.2705,-0.0244 25.50781,-0.39063 8.23242,-0.41503 16.17675,-1.06933 23.77929,-1.91406 15.21974,-1.65039 29.06739,-4.28222 41.05469,-7.65625 5.99121,-1.69434 11.54786,-3.49609 16.53809,-5.5371 4.99023,-2.04102 9.44825,-4.22363 13.29102,-6.51856 3.84276,-2.28515 7.07031,-4.69237 9.53125,-7.15331 2.47558,-2.45118 4.16991,-4.90235 5.27344,-7.03125 0.98144,-2.19239 1.43554,-3.99415 1.56738,-5.21974 0.10737,-1.23535 0.16113,-1.875 0.16113,-1.875 m 0,0 c 0,0 -0.0489,0.63965 -0.14649,1.875 -0.12694,1.23048 -0.5664,3.03711 -1.53808,5.23926 -1.08886,2.14355 -2.77344,4.61914 -5.23438,7.09473 -2.45117,2.49024 -5.68847,4.89746 -9.47754,7.29492 -7.61718,4.77539 -17.71972,9.11133 -29.63867,12.91504 -5.97168,1.88476 -12.39258,3.68652 -19.22851,5.32226 -6.85059,1.58691 -14.08692,3.11035 -21.69434,4.44336 -7.60743,1.32324 -15.57618,2.48048 -23.85743,3.41798 -8.27636,0.96679 -16.87011,1.74804 -25.72265,2.29491 -4.4336,0.28809 -8.90625,0.47853 -13.4961,0.64454 -2.26073,0.0635 -4.53612,0.12695 -6.82616,0.18555 -2.31934,0.0292 -4.64844,0.0586 -6.98731,0.0879 -9.33594,0.0244 -18.89648,-0.16113 -28.6084,-0.80566 -19.41406,-1.28906 -39.53125,-3.79395 -59.63379,-9.30665 -10.03417,-2.82226 -20.10254,-6.25 -29.83397,-11.63085 -4.85353,-2.72461 -9.68263,-5.84961 -14.02344,-10.3418 -1.05958,-1.17676 -2.14844,-2.28516 -3.10059,-3.67187 -0.47852,-0.68848 -1.00586,-1.28418 -1.43066,-2.05566 l -1.2793,-2.25587 c -0.41504,-0.76171 -0.72754,-1.65038 -1.07423,-2.47558 -0.16601,-0.4248 -0.34178,-0.83497 -0.48827,-1.26953 l -0.35156,-1.36231 c -0.19532,-0.92773 -0.50782,-1.80664 -0.55177,-2.77831 l -0.12695,-1.43067 -0.0489,-0.71777 -0.0244,-0.35645 c 0.005,-0.38574 -0.039,0.35645 0.005,-0.95703 l 0.15138,-1.91406 0.039,-0.47852 0.14647,-0.80078 c 0.10738,-0.53711 0.21973,-1.07422 0.34669,-1.60645 0.122,-0.53711 0.25879,-1.06933 0.40528,-1.59667 0.15625,-0.45899 0.32226,-0.8545 0.48827,-1.28419 0.35156,-0.82519 0.65918,-1.71386 1.07423,-2.4707 l 1.28417,-2.26074 c 0.4248,-0.7666 0.95215,-1.36718 1.43066,-2.05566 0.95215,-1.38672 2.04102,-2.49512 3.10548,-3.67187 4.3457,-4.48732 9.15526,-7.63184 14.01366,-10.35157 9.73634,-5.37597 19.79981,-8.82812 29.83888,-11.64062 20.10253,-5.53222 40.21972,-8.042 59.63866,-9.32129 19.42384,-1.23536 38.22266,-0.96192 55.90821,0.11713 8.87695,0.54687 17.45605,1.32812 25.7373,2.30469 8.28125,0.9375 16.25,2.0996 23.85743,3.42772 7.60742,1.32325 14.84375,2.85645 21.68945,4.44825 6.84082,1.63574 13.25683,3.44238 19.2334,5.32715 11.91895,3.8037 22.0166,8.14941 29.63379,12.91991 3.78906,2.39746 7.02636,4.80469 9.47753,7.29493 2.46583,2.47558 4.14552,4.95117 5.23438,7.09472 0.97168,2.20215 1.41114,4.00879 1.53809,5.23926 0.0976,1.24024 0.14648,1.87988 0.14648,1.87988"
         style="fill:#3a1100;fill-opacity:1;fill-rule:nonzero;stroke:none"
         inkscape:connector-curvature="0" />
      <path
         id="path3345"
         d="m 161.68208,385.03763 c -0.15625,5.39063 -0.0489,10.77149 0.20508,16.14259 0.27832,5.3662 0.66406,10.72265 1.23047,16.05468 1.13281,10.66894 2.88574,21.24023 5.27344,31.63574 2.38768,10.39551 5.58105,20.5664 9.46776,30.40527 3.91114,9.81934 8.66211,19.28222 14.40919,28.03711 2.88086,4.37011 5.94237,8.60351 9.25292,12.62695 3.3252,4.0039 6.88476,7.79296 10.6543,11.34765 3.75976,3.57422 7.80274,6.81641 11.99708,9.8291 2.08007,1.53809 4.27245,2.90527 6.43554,4.31152 2.23145,1.30372 4.41895,2.66603 6.72363,3.82813 2.25587,1.25977 4.60449,2.34375 6.91895,3.47656 2.37793,1.01563 4.71192,2.12403 7.14355,3.00294 4.7998,1.92871 9.77052,3.41309 14.77052,4.78515 2.52441,0.5957 5.01952,1.28906 7.583,1.75293 l 3.81836,0.77148 3.85742,0.62012 c 2.55859,0.46387 5.16113,0.69824 7.74414,1.04004 2.58789,0.29785 5.19531,0.45899 7.79296,0.70313 l 0.21485,0.0195 0.29297,0.039 c 1.28906,0.18066 2.88575,0.35645 4.36523,0.48828 1.50879,0.1416 3.02735,0.26855 4.55079,0.36133 3.05175,0.2002 6.11328,0.31739 9.18456,0.3418 6.13282,0.0635 12.2754,-0.20508 18.36915,-0.7959 12.19238,-1.18653 24.23339,-3.67188 35.63477,-7.75879 5.68847,-2.06543 11.23046,-4.47266 16.54296,-7.28516 5.29785,-2.84179 10.36621,-6.08397 15.10253,-9.74609 9.44337,-7.3584 17.57813,-16.35742 23.94532,-26.56738 3.18849,-5.10254 5.96192,-10.47851 8.40821,-16.02539 2.43653,-5.55663 4.44335,-11.32323 6.12304,-17.20703 1.66992,-5.88379 3.02246,-11.87988 4.05762,-17.95898 1.16699,-6.55762 2.60743,-12.77832 4.27246,-19.07715 1.66015,-6.26953 3.60352,-12.47558 5.88867,-18.59863 2.28516,-6.11816 4.8877,-12.16796 8.10547,-18.01269 3.22754,-5.8252 7.02636,-11.53808 12.24609,-16.40137 2.61719,-2.40723 5.62989,-4.59961 9.13575,-6.09863 3.4668,-1.53808 7.43164,-2.2461 11.25976,-2.03125 l 0.23438,0.0146 0.10737,0.0195 c 1.08399,0.16601 1.81153,0.33691 2.67578,0.55664 0.83008,0.20996 1.64551,0.44433 2.45117,0.70312 1.60645,0.51758 3.17383,1.11816 4.71191,1.81153 3.07129,1.37207 6.00587,3.10547 8.68653,5.20507 2.68066,2.09473 5.09277,4.58009 7.08985,7.36816 2.00195,2.78322 3.5498,5.87403 4.63866,9.07228 1.09864,3.20312 1.71875,6.50878 1.98243,9.79003 0.27832,3.28613 0.18066,6.55274 -0.1709,9.75098 -0.708,6.41114 -2.38769,12.54882 -4.4873,18.44726 l -0.0733,0.21485 -0.039,0.0586 c -0.81543,1.57227 -1.62109,2.86133 -2.50488,4.21388 -0.87891,1.32324 -1.80664,2.6123 -2.75391,3.87206 -1.92382,2.50489 -3.9746,4.89746 -6.14746,7.1582 -1.08398,1.1377 -2.20703,2.23145 -3.35938,3.29103 -1.14745,1.06933 -2.32421,2.0996 -3.53026,3.09081 -1.1963,1.01075 -2.44141,1.95801 -3.68165,2.90527 -1.25976,0.91309 -2.51953,1.83106 -3.82324,2.68555 -1.28417,0.88379 -2.62695,1.67969 -3.94531,2.49511 -1.34766,0.77149 -2.68555,1.5625 -4.06739,2.26563 -1.3623,0.74707 -2.76855,1.40137 -4.16991,2.06544 -1.41603,0.62987 -2.82715,1.25976 -4.26759,1.82128 -2.87109,1.13769 -5.79101,2.1582 -8.75,3.00293 -1.46484,0.46875 -2.97362,0.80079 -4.458,1.18652 -1.49415,0.36133 -3.00294,0.64454 -4.50196,0.97168 1.46485,-0.45898 2.93946,-0.87401 4.38965,-1.3623 1.44044,-0.52734 2.90527,-0.95703 4.32129,-1.53809 2.86133,-1.06934 5.6543,-2.2998 8.3838,-3.63769 1.37206,-0.66406 2.70507,-1.39161 4.04296,-2.10937 1.3086,-0.76661 2.64649,-1.48438 3.9209,-2.30469 1.29882,-0.77637 2.54882,-1.63086 3.80371,-2.47071 1.23535,-0.8789 2.48046,-1.72851 3.66211,-2.6709 1.20117,-0.9082 2.35839,-1.87988 3.51563,-2.84179 1.12792,-0.9961 2.26562,-1.98242 3.34472,-3.02735 1.09375,-1.03027 2.15332,-2.09472 3.17872,-3.18847 1.04003,-1.08399 2.03125,-2.20703 3.00781,-3.33984 1.94824,-2.27051 3.76952,-4.64356 5.43945,-7.09961 0.82519,-1.23535 1.62597,-2.48535 2.37305,-3.75976 0.72754,-1.25 1.46484,-2.61719 1.99219,-3.79884 l -0.10738,0.27344 c 1.68456,-5.72754 2.91015,-11.57226 3.21778,-17.37304 0.31737,-5.78125 -0.25392,-11.54786 -2.27052,-16.66505 -1.96777,-5.12206 -5.4248,-9.46776 -9.86327,-12.60741 -2.21193,-1.57715 -4.64844,-2.87597 -7.21193,-3.88672 -1.27928,-0.50782 -2.59276,-0.94238 -3.91601,-1.30372 -0.66406,-0.18066 -1.32812,-0.34178 -1.9873,-0.47851 -0.625,-0.13184 -1.39649,-0.26855 -1.82617,-0.31739 l 0.33691,0.0292 c -5.01953,-0.18555 -9.75586,2.26563 -13.73046,6.19142 -3.98438,3.9209 -7.23145,8.97948 -9.98048,14.32616 -2.7539,5.36133 -5.0293,11.06933 -7.0166,16.89942 -1.97754,5.83495 -3.66699,11.80175 -5.17577,17.82714 -1.4795,5.9961 -2.78809,12.18262 -3.74024,18.13965 -0.96191,6.45996 -2.27051,12.89062 -3.94044,19.25293 -1.6748,6.35741 -3.7207,12.65136 -6.25976,18.77929 -2.51465,6.1377 -5.54199,12.09473 -9.04785,17.77832 -6.99219,11.38672 -16.05958,21.58204 -26.59668,29.89257 -5.27343,4.14063 -10.91308,7.79785 -16.77735,10.9961 -5.8789,3.18848 -12.00195,5.86914 -18.27148,8.0664 -12.54394,4.39454 -25.57617,6.97754 -38.65234,8.16406 -6.53809,0.58594 -13.10059,0.8252 -19.6582,0.7129 -3.28125,-0.0489 -6.55763,-0.19043 -9.84375,-0.42968 -1.64063,-0.11713 -3.28614,-0.25392 -4.93653,-0.43458 -1.67968,-0.19042 -3.23242,-0.38086 -5.08301,-0.6836 l 0.50781,0.0635 c -2.76367,-0.30762 -5.52733,-0.54687 -8.28125,-0.91797 -2.74902,-0.41504 -5.51268,-0.73243 -8.24218,-1.2793 l -4.11133,-0.75195 -4.08204,-0.90333 c -2.72948,-0.56151 -5.41503,-1.35741 -8.11522,-2.06054 -5.36134,-1.58203 -10.68848,-3.30566 -15.8545,-5.49805 -2.6123,-1.00586 -5.12695,-2.26073 -7.68066,-3.41797 -2.49512,-1.28418 -5.02442,-2.5 -7.43164,-3.94531 -2.45605,-1.35741 -4.7998,-2.91015 -7.16798,-4.41406 -2.2998,-1.60157 -4.6289,-3.17383 -6.82616,-4.9121 -4.44336,-3.42285 -8.69629,-7.08985 -12.61719,-11.0791 -3.94043,-3.96974 -7.62207,-8.17384 -11.03027,-12.57325 -3.40333,-4.41406 -6.49903,-9.03809 -9.30176,-13.81348 -5.64453,-9.54101 -10.13184,-19.67284 -13.70605,-30.03906 -3.6084,-10.36621 -6.13282,-21.04003 -7.96388,-31.76757 -0.9082,-5.3711 -1.64062,-10.76172 -2.17285,-16.167 -0.51757,-5.40526 -0.8496,-10.82031 -1.02539,-16.23535 -0.18066,-5.41503 -0.19531,-10.83007 0.01,-16.23046 0.20997,-5.40038 0.53223,-10.80078 1.23048,-16.15235"
         style="fill:#3a1100;fill-opacity:1;fill-rule:nonzero;stroke:none"
         inkscape:connector-curvature="0" />
      <path
         id="path3347"
         d="m 476.23774,379.83744 c 0,0 0.21973,-0.1416 0.64941,-0.41992 0.4248,-0.2832 1.05469,-0.69824 1.92383,-1.19141 1.72853,-0.98144 4.30176,-2.40234 7.83691,-3.72558 3.53028,-1.32325 8.00781,-2.57812 13.35938,-3.17871 5.33692,-0.58106 11.57715,-0.50781 18.27149,1.09375 3.34472,0.78612 6.79199,1.96777 10.19531,3.65722 3.4082,1.6748 6.792,3.84765 9.87793,6.60157 6.25977,5.41015 11.25977,13.23242 13.68652,21.91406 0.62012,2.16308 1.09863,4.37011 1.4795,6.60156 0.3418,2.23144 0.55663,4.4873 0.6543,6.74316 0.19531,4.51171 -0.0489,9.02833 -0.69825,13.47168 -0.66406,4.43359 -1.60156,8.80859 -2.88087,13.06641 l -0.23925,0.7959 -0.11712,0.40038 -0.19044,0.5664 -0.0684,0.18068 -0.53223,1.45995 c -0.32227,0.92286 -0.78614,2.05079 -1.23536,3.14454 -0.89844,2.19238 -1.82129,4.17968 -2.83691,6.2207 -4.11133,8.04687 -9.29199,15.43944 -15.1416,21.87499 -5.80567,6.48927 -12.22168,12.0752 -18.70605,16.96289 -6.52344,4.84864 -13.14454,8.9795 -19.6045,12.48047 -6.45995,3.50098 -12.73925,6.40137 -18.62793,8.79883 -11.77734,4.79981 -21.93847,7.65137 -29.10156,9.32617 -7.17774,1.64552 -11.34765,2.14844 -11.34765,2.14844 0,0 0.95702,-0.4248 2.74901,-1.2207 1.78711,-0.78614 4.38478,-2.0166 7.66114,-3.59375 6.54297,-3.16406 15.79101,-7.82227 26.35742,-14.08691 5.27832,-3.13965 10.88379,-6.66993 16.58203,-10.66895 5.69336,-3.99414 11.50391,-8.41309 17.09961,-13.36426 5.625,-4.9121 11.00587,-10.37109 15.86914,-16.28906 4.81934,-5.95215 9.1211,-12.36816 12.38281,-19.21875 0.8252,-1.68456 1.63087,-3.48144 2.29004,-5.13671 0.32715,-0.83008 0.65919,-1.61622 1.01563,-2.65625 l 0.51758,-1.46485 0.0635,-0.18067 0.0341,-0.0928 c -0.23925,0.72267 -0.0489,0.15138 -0.0976,0.28809 l 0.0976,-0.3418 0.19531,-0.69335 c 1.03516,-3.68652 1.95313,-7.36328 2.52441,-11.01562 0.53712,-3.64746 0.91309,-7.25098 0.88379,-10.75196 -0.0341,-3.50098 -0.36132,-6.89453 -1.05956,-10.1123 -0.72754,-3.20802 -1.78711,-6.23535 -3.18848,-9.02344 -0.69336,-1.3916 -1.51367,-2.70507 -2.37793,-3.95996 -0.85449,-1.26953 -1.79688,-2.46094 -2.8125,-3.5791 -2.02148,-2.23145 -4.30664,-4.16993 -6.72852,-5.83008 -2.43652,-1.63086 -4.99511,-3.00781 -7.59277,-4.09668 -5.20019,-2.17285 -10.47363,-3.32032 -15.24414,-3.80859 -4.78027,-0.49316 -9.07715,-0.38574 -12.62207,-0.044 -3.5498,0.32715 -6.3623,0.8545 -8.2666,1.26465 -1.9043,0.41992 -2.93945,0.6836 -2.93945,0.6836"
         style="fill:#3a1100;fill-opacity:1;fill-rule:nonzero;stroke:none"
         inkscape:connector-curvature="0" />
      <path
         id="path3349"
         d="m 324.56294,3.9390345 c 0,0 0.27831,0.063475 0.81543,0.1855463 0.53711,0.1269537 1.34765,0.3613287 2.3584,0.7714849 2.01171,0.8203124 4.91211,2.3632811 8.04198,5.0976558 3.12989,2.7148435 6.50392,6.5478505 9.53125,11.5185525 3.03223,4.956055 5.74219,11.035156 7.57813,18.007811 0.91797,3.486329 1.66504,7.182617 2.08985,11.059571 0.44921,3.867187 0.67382,7.905272 0.54687,12.05078 -0.18555,8.286132 -1.56738,17.006834 -4.16016,25.629882 -2.54882,8.642574 -6.28906,17.192382 -10.92285,25.317382 -2.33398,4.05273 -4.8291,8.04199 -7.56347,11.87499 -2.75879,3.84766 -5.56641,7.5 -8.70118,11.18652 -0.71777,0.83985 -1.51855,1.72853 -2.16796,2.5293 l -1.99708,2.43164 c -1.30371,1.66993 -2.66113,3.34473 -3.87694,5.07325 -2.50489,3.42285 -4.85841,6.90429 -6.91896,10.47851 -4.17479,7.1289 -7.28515,14.55078 -9.05273,22.03125 -1.73339,7.47559 -2.08008,14.98046 -1.27441,22.10449 0.83496,7.12891 2.68554,13.85253 5,19.91699 2.31933,6.06445 5.07325,11.4746 7.72461,16.17675 1.28417,2.37794 2.66601,4.51173 3.85742,6.54298 1.28418,1.9873 2.46094,3.80859 3.52539,5.45898 1.11329,1.62598 2.10449,3.08105 2.96875,4.3457 0.86426,1.26953 1.65528,2.30469 2.27051,3.16894 1.23047,1.73829 1.88477,2.66603 1.88477,2.66603 0,0 -0.85938,-0.74219 -2.4707,-2.12892 -1.6211,-1.38671 -3.93067,-3.49608 -6.80177,-6.27441 -1.40136,-1.42577 -2.94921,-3.0127 -4.59961,-4.78027 -1.57715,-1.82618 -3.39844,-3.72559 -5.10741,-5.95703 -3.54493,-4.35547 -7.29493,-9.55566 -10.69336,-15.75196 -3.39357,-6.18651 -6.37695,-13.41796 -8.23243,-21.56737 -0.83007,-4.08204 -1.49903,-8.36426 -1.63574,-12.80274 -0.11237,-4.43359 0.13184,-8.98926 0.82032,-13.55957 1.48925,-9.1162 4.62402,-18.22265 9.09178,-26.59179 2.19728,-4.21387 4.64844,-8.2959 7.36818,-12.17285 1.32324,-1.97755 2.74414,-3.84277 4.16015,-5.76172 l 2.22167,-2.84668 c 0.74708,-0.97168 1.43555,-1.77246 2.15822,-2.66602 2.67577,-3.208 5.32715,-6.73827 7.75878,-10.21484 2.44629,-3.50586 4.79493,-7.04101 6.91407,-10.66895 4.28711,-7.211908 7.83202,-14.643545 10.54198,-22.065419 1.32813,-3.720703 2.48048,-7.426757 3.39357,-11.113281 0.88378,-3.681639 1.57226,-7.3291 2.04588,-10.913085 0.90821,-7.167968 0.95215,-14.052733 0.24903,-20.366208 -0.70313,-6.313477 -2.09473,-12.050781 -3.91113,-16.948242 -1.792,-4.907225 -3.98926,-8.979491 -6.17187,-12.089842 -2.18263,-3.1152351 -4.34083,-5.27832 -5.98145,-6.5673824 -0.8252,-0.6347662 -1.48438,-1.0937499 -1.95802,-1.3867186 -0.47362,-0.2832037 -0.71776,-0.4296875 -0.71776,-0.4296875"
         style="fill:#3a1100;fill-opacity:1;fill-rule:nonzero;stroke:none"
         inkscape:connector-curvature="0" />
      <path
         id="path3351"
         d="m 366.64789,156.68805 c 0,0 -0.50781,0.75195 -1.45995,2.1582 -0.4834,0.69824 -1.09864,1.54785 -1.70411,2.60254 -0.61035,1.05468 -1.3916,2.1875 -2.0996,3.57421 -0.36621,0.6836 -0.75196,1.40137 -1.15722,2.15332 -0.34669,0.77149 -0.70802,1.58204 -1.08888,2.42677 -0.40528,0.83007 -0.68359,1.74803 -1.0498,2.66112 -0.37597,0.90821 -0.66895,1.87989 -0.94239,2.89063 -1.12305,4.00878 -1.76268,8.6377 -1.17187,13.56933 0.48828,4.93653 2.14843,10.1416 4.61426,15.44923 2.45605,5.32226 5.71289,10.74706 9.21386,16.44042 1.7627,2.83691 3.56934,5.75684 5.37598,8.76954 1.81641,3.00292 3.63281,6.09862 5.32715,9.3457 1.69433,3.24706 3.38867,6.57715 4.78516,10.10742 l 0.27344,0.65429 0.18066,0.4541 0.11225,0.31738 0.46387,1.26465 c 0.30762,0.87403 0.625,1.59668 0.92285,2.62208 l 0.88867,2.90526 0.70801,2.89063 c 0.83008,3.88672 1.27441,7.94922 1.11329,12.06055 -0.11713,4.11621 -1.01563,8.22753 -2.42677,12.02148 -1.40625,3.81348 -3.35448,7.29493 -5.55176,10.42969 -2.23144,3.10546 -4.67772,5.88867 -7.22656,8.41796 -4.71679,4.61915 -8.95508,9.19922 -12.48535,13.91114 -3.53028,4.69238 -6.32324,9.47266 -8.125,14.16016 -1.81153,4.68261 -2.65136,9.27734 -2.59765,13.40331 0.0489,4.13086 0.81054,7.77344 1.77246,10.68847 0.95214,2.92969 2.0166,5.15625 2.76855,6.66504 0.79101,1.49415 1.21583,2.29005 1.21583,2.29005 0,0 -0.60548,-0.67384 -1.74318,-1.94336 -1.04491,-1.33789 -2.69042,-3.27638 -4.22851,-6.14258 -1.57226,-2.82715 -3.208,-6.55273 -3.94043,-11.17187 -0.37109,-2.29981 -0.5957,-4.80469 -0.48828,-7.4463 0.1025,-2.6416 0.52246,-5.40039 1.20117,-8.208 1.38184,-5.62989 3.95508,-11.37207 7.36816,-16.89941 3.40333,-5.52735 7.65625,-10.90332 12.29004,-15.9961 2.08009,-2.37792 4.06739,-4.83886 5.77149,-7.45605 1.65039,-2.63672 3.04199,-5.38575 4.02344,-8.24219 2.00195,-5.71288 2.03613,-11.92382 0.63476,-18.21288 l -0.55175,-2.35353 -0.66895,-2.25585 c -0.17578,-0.7129 -0.55664,-1.64551 -0.83496,-2.46582 l -0.4541,-1.26954 -0.11225,-0.3125 c -0.0537,-0.1416 0.0439,0.1025 0.0195,0.0489 l -0.0879,-0.21973 -0.23926,-0.58594 c -1.23535,-3.13477 -2.63671,-6.24512 -4.15528,-9.30664 -3.02733,-6.13282 -6.45995,-12.12403 -9.66307,-18.12988 -3.22266,-5.9961 -6.24024,-12.03125 -8.43263,-18.17383 -2.19237,-6.12793 -3.47656,-12.42188 -3.32031,-18.28613 0.0292,-5.87402 1.64063,-11.10351 3.56934,-15.26856 1.95312,-4.18945 4.24805,-7.44629 6.34277,-9.88281 0.97657,-1.27929 2.02149,-2.29004 2.87109,-3.19335 0.84474,-0.91798 1.62599,-1.60645 2.25099,-2.18263 1.25976,-1.13768 1.9287,-1.74803 1.9287,-1.74803"
         style="fill:#3a1100;fill-opacity:1;fill-rule:nonzero;stroke:none"
         inkscape:connector-curvature="0" />
    </g>
  </g>
</svg>
